<?xml version="1.0" encoding="utf-8" standalone="no"?>
<!DOCTYPE svg PUBLIC "-//W3C//DTD SVG 1.1//EN"
  "http://www.w3.org/Graphics/SVG/1.1/DTD/svg11.dtd">
<svg xmlns:xlink="http://www.w3.org/1999/xlink" width="432pt" height="288pt" viewBox="0 0 432 288" xmlns="http://www.w3.org/2000/svg" version="1.1">
 <metadata>
  <rdf:RDF xmlns:dc="http://purl.org/dc/elements/1.1/" xmlns:cc="http://creativecommons.org/ns#" xmlns:rdf="http://www.w3.org/1999/02/22-rdf-syntax-ns#">
   <cc:Work>
    <dc:type rdf:resource="http://purl.org/dc/dcmitype/StillImage"/>
    <dc:date>2023-01-12T12:31:14.211032</dc:date>
    <dc:format>image/svg+xml</dc:format>
    <dc:creator>
     <cc:Agent>
      <dc:title>Matplotlib v3.5.2, https://matplotlib.org/</dc:title>
     </cc:Agent>
    </dc:creator>
   </cc:Work>
  </rdf:RDF>
 </metadata>
 <defs>
  <style type="text/css">*{stroke-linejoin: round; stroke-linecap: butt}</style>
 </defs>
 <g id="figure_1">
  <g id="patch_1">
   <path d="M 0 288 
L 432 288 
L 432 0 
L 0 0 
L 0 288 
z
" style="fill: none"/>
  </g>
  <g id="axes_1">
   <g id="patch_2">
    <path d="M 54 252 
L 388.8 252 
L 388.8 34.56 
L 54 34.56 
z
" style="fill: #ffffff"/>
   </g>
   <g id="matplotlib.axis_1">
    <g id="xtick_1">
     <g id="line2d_1">
      <path d="M 61.617675 252 
L 61.617675 34.56 
" clip-path="url(#p5ba45d3208)" style="fill: none; stroke: #b0b0b0; stroke-width: 0.5; stroke-linecap: square"/>
     </g>
     <g id="line2d_2">
      <defs>
       <path id="m095ceb9611" d="M 0 0 
L 0 3.5 
" style="stroke: #000000; stroke-width: 0.8"/>
      </defs>
      <g>
       <use xlink:href="#m095ceb9611" x="61.617675" y="252" style="stroke: #000000; stroke-width: 0.8"/>
      </g>
     </g>
     <g id="text_1">
      <!-- $\mathdefault{10^{5}}$ -->
      <g transform="translate(54.650721 265.918498)scale(0.1 -0.1)">
       <defs>
        <path id="CMR17-31" d="M 1702 4058 
C 1702 4192 1696 4192 1606 4192 
C 1357 3916 979 3827 621 3827 
C 602 3827 570 3827 563 3808 
C 557 3795 557 3782 557 3648 
C 755 3648 1088 3686 1344 3839 
L 1344 461 
C 1344 236 1331 160 781 160 
L 589 160 
L 589 0 
C 896 0 1216 0 1523 0 
C 1830 0 2150 0 2458 0 
L 2458 160 
L 2266 160 
C 1715 160 1702 230 1702 458 
L 1702 4058 
z
" transform="scale(0.015625)"/>
        <path id="CMR17-30" d="M 2688 2025 
C 2688 2416 2682 3080 2413 3591 
C 2176 4039 1798 4198 1466 4198 
C 1158 4198 768 4058 525 3597 
C 269 3118 243 2524 243 2025 
C 243 1661 250 1106 448 619 
C 723 -39 1216 -128 1466 -128 
C 1760 -128 2208 -7 2470 600 
C 2662 1042 2688 1559 2688 2025 
z
M 1466 -26 
C 1056 -26 813 325 723 812 
C 653 1188 653 1738 653 2096 
C 653 2588 653 2997 736 3387 
C 858 3929 1216 4096 1466 4096 
C 1728 4096 2067 3923 2189 3400 
C 2272 3036 2278 2607 2278 2096 
C 2278 1680 2278 1169 2202 792 
C 2067 95 1690 -26 1466 -26 
z
" transform="scale(0.015625)"/>
        <path id="CMR17-35" d="M 730 3692 
C 794 3666 1056 3584 1325 3584 
C 1920 3584 2246 3911 2432 4100 
C 2432 4157 2432 4192 2394 4192 
C 2387 4192 2374 4192 2323 4163 
C 2099 4058 1837 3973 1517 3973 
C 1325 3973 1037 3999 723 4139 
C 653 4171 640 4171 634 4171 
C 602 4171 595 4164 595 4037 
L 595 2203 
C 595 2089 595 2057 659 2057 
C 691 2057 704 2070 736 2114 
C 941 2401 1222 2522 1542 2522 
C 1766 2522 2246 2382 2246 1289 
C 2246 1085 2246 715 2054 421 
C 1894 159 1645 25 1370 25 
C 947 25 518 320 403 814 
C 429 807 480 795 506 795 
C 589 795 749 840 749 1038 
C 749 1210 627 1280 506 1280 
C 358 1280 262 1190 262 1011 
C 262 454 704 -128 1382 -128 
C 2042 -128 2669 440 2669 1264 
C 2669 2030 2170 2624 1549 2624 
C 1222 2624 947 2503 730 2274 
L 730 3692 
z
" transform="scale(0.015625)"/>
       </defs>
       <use xlink:href="#CMR17-31" transform="scale(0.996264)"/>
       <use xlink:href="#CMR17-30" transform="translate(45.690477 0)scale(0.996264)"/>
       <use xlink:href="#CMR17-35" transform="translate(91.380954 36.153639)scale(0.697382)"/>
      </g>
     </g>
    </g>
    <g id="xtick_2">
     <g id="line2d_3">
      <path d="M 245.237246 252 
L 245.237246 34.56 
" clip-path="url(#p5ba45d3208)" style="fill: none; stroke: #b0b0b0; stroke-width: 0.5; stroke-linecap: square"/>
     </g>
     <g id="line2d_4">
      <g>
       <use xlink:href="#m095ceb9611" x="245.237246" y="252" style="stroke: #000000; stroke-width: 0.8"/>
      </g>
     </g>
     <g id="text_2">
      <!-- $\mathdefault{10^{6}}$ -->
      <g transform="translate(238.270292 265.918498)scale(0.1 -0.1)">
       <defs>
        <path id="CMR17-36" d="M 678 2176 
C 678 3690 1395 4032 1811 4032 
C 1946 4032 2272 4009 2400 3776 
C 2298 3776 2106 3776 2106 3553 
C 2106 3381 2246 3323 2336 3323 
C 2394 3323 2566 3348 2566 3560 
C 2566 3954 2246 4179 1805 4179 
C 1043 4179 243 3390 243 1984 
C 243 253 966 -128 1478 -128 
C 2099 -128 2688 427 2688 1283 
C 2688 2081 2170 2662 1517 2662 
C 1126 2662 838 2407 678 1960 
L 678 2176 
z
M 1478 25 
C 691 25 691 1200 691 1436 
C 691 1896 909 2560 1504 2560 
C 1613 2560 1926 2560 2138 2120 
C 2253 1870 2253 1609 2253 1289 
C 2253 944 2253 690 2118 434 
C 1978 171 1773 25 1478 25 
z
" transform="scale(0.015625)"/>
       </defs>
       <use xlink:href="#CMR17-31" transform="scale(0.996264)"/>
       <use xlink:href="#CMR17-30" transform="translate(45.690477 0)scale(0.996264)"/>
       <use xlink:href="#CMR17-36" transform="translate(91.380954 36.153639)scale(0.697382)"/>
      </g>
     </g>
    </g>
    <g id="xtick_3">
     <g id="line2d_5">
      <defs>
       <path id="m0362b84916" d="M 0 0 
L 0 2 
" style="stroke: #000000; stroke-width: 0.6"/>
      </defs>
      <g>
       <use xlink:href="#m0362b84916" x="116.892673" y="252" style="stroke: #000000; stroke-width: 0.6"/>
      </g>
     </g>
    </g>
    <g id="xtick_4">
     <g id="line2d_6">
      <g>
       <use xlink:href="#m0362b84916" x="149.226475" y="252" style="stroke: #000000; stroke-width: 0.6"/>
      </g>
     </g>
    </g>
    <g id="xtick_5">
     <g id="line2d_7">
      <g>
       <use xlink:href="#m0362b84916" x="172.167672" y="252" style="stroke: #000000; stroke-width: 0.6"/>
      </g>
     </g>
    </g>
    <g id="xtick_6">
     <g id="line2d_8">
      <g>
       <use xlink:href="#m0362b84916" x="189.962247" y="252" style="stroke: #000000; stroke-width: 0.6"/>
      </g>
     </g>
    </g>
    <g id="xtick_7">
     <g id="line2d_9">
      <g>
       <use xlink:href="#m0362b84916" x="204.501474" y="252" style="stroke: #000000; stroke-width: 0.6"/>
      </g>
     </g>
    </g>
    <g id="xtick_8">
     <g id="line2d_10">
      <g>
       <use xlink:href="#m0362b84916" x="216.794214" y="252" style="stroke: #000000; stroke-width: 0.6"/>
      </g>
     </g>
    </g>
    <g id="xtick_9">
     <g id="line2d_11">
      <g>
       <use xlink:href="#m0362b84916" x="227.442671" y="252" style="stroke: #000000; stroke-width: 0.6"/>
      </g>
     </g>
    </g>
    <g id="xtick_10">
     <g id="line2d_12">
      <g>
       <use xlink:href="#m0362b84916" x="236.835275" y="252" style="stroke: #000000; stroke-width: 0.6"/>
      </g>
     </g>
    </g>
    <g id="xtick_11">
     <g id="line2d_13">
      <g>
       <use xlink:href="#m0362b84916" x="300.512244" y="252" style="stroke: #000000; stroke-width: 0.6"/>
      </g>
     </g>
    </g>
    <g id="xtick_12">
     <g id="line2d_14">
      <g>
       <use xlink:href="#m0362b84916" x="332.846046" y="252" style="stroke: #000000; stroke-width: 0.6"/>
      </g>
     </g>
    </g>
    <g id="xtick_13">
     <g id="line2d_15">
      <g>
       <use xlink:href="#m0362b84916" x="355.787243" y="252" style="stroke: #000000; stroke-width: 0.6"/>
      </g>
     </g>
    </g>
    <g id="xtick_14">
     <g id="line2d_16">
      <g>
       <use xlink:href="#m0362b84916" x="373.581818" y="252" style="stroke: #000000; stroke-width: 0.6"/>
      </g>
     </g>
    </g>
    <g id="xtick_15">
     <g id="line2d_17">
      <g>
       <use xlink:href="#m0362b84916" x="388.121045" y="252" style="stroke: #000000; stroke-width: 0.6"/>
      </g>
     </g>
    </g>
    <g id="text_3">
     <!-- Frequnez [Hz] -->
     <g transform="translate(191.429017 279.327657)scale(0.1 -0.1)">
      <defs>
       <path id="CMR17-46" d="M 3482 4325 
L 326 4325 
L 326 4160 
C 768 4160 838 4160 838 3874 
L 838 446 
C 838 160 768 160 326 160 
L 326 0 
C 512 0 870 0 1069 0 
C 1331 0 1638 0 1901 0 
L 1901 160 
L 1760 160 
C 1274 160 1261 223 1261 452 
L 1261 2075 
L 1837 2075 
C 2432 2075 2490 1865 2490 1332 
L 2605 1332 
L 2605 2987 
L 2490 2987 
C 2490 2450 2432 2240 1837 2240 
L 1261 2240 
L 1261 3911 
C 1261 4128 1274 4160 1530 4160 
L 2355 4160 
C 3322 4160 3430 3765 3520 2916 
L 3635 2916 
L 3482 4325 
z
" transform="scale(0.015625)"/>
       <path id="CMR17-72" d="M 960 1497 
C 960 2112 1222 2688 1702 2688 
C 1747 2688 1792 2682 1837 2662 
C 1837 2662 1696 2617 1696 2452 
C 1696 2298 1818 2234 1914 2234 
C 1990 2234 2131 2279 2131 2458 
C 2131 2663 1926 2790 1709 2790 
C 1222 2790 1011 2317 947 2093 
L 941 2093 
L 941 2790 
L 198 2720 
L 198 2554 
C 576 2554 634 2515 634 2208 
L 634 428 
C 634 184 608 153 198 153 
L 198 -13 
C 352 0 646 0 813 0 
C 998 0 1325 0 1498 -13 
L 1498 153 
C 1037 153 960 153 960 440 
L 960 1497 
z
" transform="scale(0.015625)"/>
       <path id="CMR17-65" d="M 2438 1472 
C 2464 1498 2464 1511 2464 1576 
C 2464 2238 2118 2816 1389 2816 
C 710 2816 173 2169 173 1383 
C 173 551 781 -64 1459 -64 
C 2176 -64 2458 607 2458 740 
C 2458 784 2419 784 2406 784 
C 2362 784 2355 771 2330 696 
C 2189 265 1837 51 1504 51 
C 1229 51 954 203 781 480 
C 582 803 582 1176 582 1472 
L 2438 1472 
z
M 589 1568 
C 634 2505 1126 2714 1382 2714 
C 1818 2714 2112 2297 2118 1568 
L 589 1568 
z
" transform="scale(0.015625)"/>
       <path id="CMR17-71" d="M 2630 2802 
L 2528 2802 
L 2336 2172 
C 2189 2509 1920 2802 1491 2802 
C 838 2802 211 2223 211 1383 
C 211 548 800 -38 1440 -38 
C 1933 -38 2208 338 2291 478 
L 2291 -789 
C 2291 -1031 2266 -1063 1856 -1063 
L 1856 -1228 
C 2010 -1216 2291 -1216 2458 -1216 
C 2624 -1216 2912 -1216 3066 -1228 
L 3066 -1063 
C 2656 -1063 2630 -1037 2630 -789 
L 2630 2802 
z
M 2304 886 
C 2304 612 2074 357 2054 338 
C 1856 115 1626 64 1472 64 
C 992 64 621 669 621 1375 
C 621 2121 1043 2688 1536 2688 
C 2048 2688 2304 2108 2304 1777 
L 2304 886 
z
" transform="scale(0.015625)"/>
       <path id="CMR17-75" d="M 1882 2693 
L 1882 2528 
C 2259 2528 2317 2489 2317 2186 
L 2317 1032 
C 2317 500 2029 38 1555 38 
C 1030 38 986 348 986 678 
L 986 2763 
L 211 2693 
L 211 2528 
C 467 2528 640 2528 646 2274 
L 646 1058 
C 646 633 646 361 813 183 
C 896 101 1056 -64 1517 -64 
C 2061 -64 2272 377 2323 506 
L 2330 506 
L 2330 -63 
L 3091 -63 
L 3091 128 
C 2714 128 2656 166 2656 473 
L 2656 2763 
L 1882 2693 
z
" transform="scale(0.015625)"/>
       <path id="CMR17-6e" d="M 2656 1933 
C 2656 2259 2592 2790 1837 2790 
C 1331 2790 1069 2400 973 2144 
L 966 2144 
L 966 2790 
L 211 2720 
L 211 2554 
C 589 2554 646 2515 646 2208 
L 646 428 
C 646 184 621 153 211 153 
L 211 -13 
C 365 0 646 0 813 0 
C 979 0 1267 0 1421 -13 
L 1421 153 
C 1011 153 986 178 986 428 
L 986 1658 
C 986 2247 1344 2688 1792 2688 
C 2266 2688 2317 2266 2317 1958 
L 2317 428 
C 2317 184 2291 153 1882 153 
L 1882 -13 
C 2035 0 2317 0 2483 0 
C 2650 0 2938 0 3091 -13 
L 3091 153 
C 2682 153 2656 178 2656 428 
L 2656 1933 
z
" transform="scale(0.015625)"/>
       <path id="CMR17-7a" d="M 2310 2605 
C 2362 2670 2362 2682 2362 2695 
C 2362 2752 2336 2752 2221 2752 
L 275 2752 
L 211 1760 
L 326 1760 
C 371 2381 442 2650 1178 2650 
L 1958 2650 
L 128 96 
C 128 0 134 0 269 0 
L 2291 0 
L 2381 1152 
L 2266 1152 
C 2214 442 2131 115 1350 115 
L 531 115 
L 2310 2605 
z
" transform="scale(0.015625)"/>
       <path id="CMR17-5b" d="M 1504 -1600 
L 1504 -1377 
L 902 -1377 
L 902 4544 
L 1504 4544 
L 1504 4767 
L 678 4767 
L 678 -1600 
L 1504 -1600 
z
" transform="scale(0.015625)"/>
       <path id="CMR17-48" d="M 3590 3905 
C 3590 4192 3661 4192 4102 4192 
L 4102 4352 
C 3917 4352 3578 4352 3379 4352 
C 3181 4352 2842 4352 2656 4352 
L 2656 4192 
C 3098 4192 3168 4192 3168 3904 
L 3168 2341 
L 1261 2341 
L 1261 3904 
C 1261 4192 1331 4192 1773 4192 
L 1773 4352 
C 1587 4352 1248 4352 1050 4352 
C 851 4352 512 4352 326 4352 
L 326 4192 
C 768 4192 838 4192 838 3905 
L 838 447 
C 838 160 768 160 326 160 
L 326 0 
C 512 0 851 0 1050 0 
C 1248 0 1587 0 1773 0 
L 1773 160 
C 1331 160 1261 160 1261 446 
L 1261 2176 
L 3168 2176 
L 3168 446 
C 3168 160 3098 160 2656 160 
L 2656 0 
C 2842 0 3181 0 3379 0 
C 3578 0 3917 0 4102 0 
L 4102 160 
C 3661 160 3590 160 3590 447 
L 3590 3905 
z
" transform="scale(0.015625)"/>
       <path id="CMR17-5d" d="M 915 4767 
L 90 4767 
L 90 4544 
L 691 4544 
L 691 -1377 
L 90 -1377 
L 90 -1600 
L 915 -1600 
L 915 4767 
z
" transform="scale(0.015625)"/>
      </defs>
      <use xlink:href="#CMR17-46" transform="scale(0.996264)"/>
      <use xlink:href="#CMR17-72" transform="translate(52.176591 0)scale(0.996264)"/>
      <use xlink:href="#CMR17-65" transform="translate(87.457359 0)scale(0.996264)"/>
      <use xlink:href="#CMR17-71" transform="translate(127.943019 0)scale(0.996264)"/>
      <use xlink:href="#CMR17-75" transform="translate(176.235935 0)scale(0.996264)"/>
      <use xlink:href="#CMR17-6e" transform="translate(227.131305 0)scale(0.996264)"/>
      <use xlink:href="#CMR17-65" transform="translate(278.026675 0)scale(0.996264)"/>
      <use xlink:href="#CMR17-7a" transform="translate(318.512335 0)scale(0.996264)"/>
      <use xlink:href="#CMR17-5b" transform="translate(389.073962 0)scale(0.996264)"/>
      <use xlink:href="#CMR17-48" transform="translate(413.945021 0)scale(0.996264)"/>
      <use xlink:href="#CMR17-7a" transform="translate(483.01745 0)scale(0.996264)"/>
      <use xlink:href="#CMR17-5d" transform="translate(523.503111 0)scale(0.996264)"/>
     </g>
    </g>
   </g>
   <g id="matplotlib.axis_2">
    <g id="ytick_1">
     <g id="line2d_18">
      <path d="M 54 231.03524 
L 388.8 231.03524 
" clip-path="url(#p5ba45d3208)" style="fill: none; stroke: #b0b0b0; stroke-width: 0.5; stroke-linecap: square"/>
     </g>
     <g id="line2d_19">
      <defs>
       <path id="m317c14dfb6" d="M 0 0 
L -3.5 0 
" style="stroke: #000000; stroke-width: 0.8"/>
      </defs>
      <g>
       <use xlink:href="#m317c14dfb6" x="54" y="231.03524" style="stroke: #000000; stroke-width: 0.8"/>
      </g>
     </g>
     <g id="text_4">
      <!-- $\mathdefault{10^{1}}$ -->
      <g transform="translate(33.066092 234.494489)scale(0.1 -0.1)">
       <use xlink:href="#CMR17-31" transform="scale(0.996264)"/>
       <use xlink:href="#CMR17-30" transform="translate(45.690477 0)scale(0.996264)"/>
       <use xlink:href="#CMR17-31" transform="translate(91.380954 36.153639)scale(0.697382)"/>
      </g>
     </g>
    </g>
    <g id="ytick_2">
     <g id="line2d_20">
      <path d="M 54 167.323228 
L 388.8 167.323228 
" clip-path="url(#p5ba45d3208)" style="fill: none; stroke: #b0b0b0; stroke-width: 0.5; stroke-linecap: square"/>
     </g>
     <g id="line2d_21">
      <g>
       <use xlink:href="#m317c14dfb6" x="54" y="167.323228" style="stroke: #000000; stroke-width: 0.8"/>
      </g>
     </g>
     <g id="text_5">
      <!-- $\mathdefault{10^{2}}$ -->
      <g transform="translate(33.066092 170.782478)scale(0.1 -0.1)">
       <defs>
        <path id="CMR17-32" d="M 2669 989 
L 2554 989 
C 2490 536 2438 459 2413 420 
C 2381 369 1920 369 1830 369 
L 602 369 
C 832 619 1280 1072 1824 1597 
C 2214 1967 2669 2402 2669 3035 
C 2669 3790 2067 4224 1395 4224 
C 691 4224 262 3604 262 3030 
C 262 2780 448 2748 525 2748 
C 589 2748 781 2787 781 3010 
C 781 3207 614 3264 525 3264 
C 486 3264 448 3258 422 3245 
C 544 3790 915 4058 1306 4058 
C 1862 4058 2227 3617 2227 3035 
C 2227 2479 1901 2000 1536 1584 
L 262 146 
L 262 0 
L 2515 0 
L 2669 989 
z
" transform="scale(0.015625)"/>
       </defs>
       <use xlink:href="#CMR17-31" transform="scale(0.996264)"/>
       <use xlink:href="#CMR17-30" transform="translate(45.690477 0)scale(0.996264)"/>
       <use xlink:href="#CMR17-32" transform="translate(91.380954 36.153639)scale(0.697382)"/>
      </g>
     </g>
    </g>
    <g id="ytick_3">
     <g id="line2d_22">
      <path d="M 54 103.611217 
L 388.8 103.611217 
" clip-path="url(#p5ba45d3208)" style="fill: none; stroke: #b0b0b0; stroke-width: 0.5; stroke-linecap: square"/>
     </g>
     <g id="line2d_23">
      <g>
       <use xlink:href="#m317c14dfb6" x="54" y="103.611217" style="stroke: #000000; stroke-width: 0.8"/>
      </g>
     </g>
     <g id="text_6">
      <!-- $\mathdefault{10^{3}}$ -->
      <g transform="translate(33.066092 107.070467)scale(0.1 -0.1)">
       <defs>
        <path id="CMR17-33" d="M 1414 2157 
C 1984 2157 2234 1662 2234 1090 
C 2234 320 1824 25 1453 25 
C 1114 25 563 194 390 693 
C 422 680 454 680 486 680 
C 640 680 755 782 755 948 
C 755 1133 614 1216 486 1216 
C 378 1216 211 1165 211 926 
C 211 335 787 -128 1466 -128 
C 2176 -128 2720 430 2720 1085 
C 2720 1707 2208 2157 1600 2227 
C 2086 2328 2554 2756 2554 3329 
C 2554 3820 2048 4179 1472 4179 
C 890 4179 378 3829 378 3329 
C 378 3110 544 3072 627 3072 
C 762 3072 877 3155 877 3321 
C 877 3486 762 3569 627 3569 
C 602 3569 570 3569 544 3557 
C 730 3959 1235 4032 1459 4032 
C 1683 4032 2106 3925 2106 3320 
C 2106 3143 2080 2828 1862 2550 
C 1670 2304 1453 2304 1242 2284 
C 1210 2284 1062 2269 1037 2269 
C 992 2263 966 2257 966 2208 
C 966 2163 973 2157 1101 2157 
L 1414 2157 
z
" transform="scale(0.015625)"/>
       </defs>
       <use xlink:href="#CMR17-31" transform="scale(0.996264)"/>
       <use xlink:href="#CMR17-30" transform="translate(45.690477 0)scale(0.996264)"/>
       <use xlink:href="#CMR17-33" transform="translate(91.380954 36.153639)scale(0.697382)"/>
      </g>
     </g>
    </g>
    <g id="ytick_4">
     <g id="line2d_24">
      <path d="M 54 39.899206 
L 388.8 39.899206 
" clip-path="url(#p5ba45d3208)" style="fill: none; stroke: #b0b0b0; stroke-width: 0.5; stroke-linecap: square"/>
     </g>
     <g id="line2d_25">
      <g>
       <use xlink:href="#m317c14dfb6" x="54" y="39.899206" style="stroke: #000000; stroke-width: 0.8"/>
      </g>
     </g>
     <g id="text_7">
      <!-- $\mathdefault{10^{4}}$ -->
      <g transform="translate(33.066092 43.358456)scale(0.1 -0.1)">
       <defs>
        <path id="CMR17-34" d="M 2150 4122 
C 2150 4256 2144 4256 2029 4256 
L 128 1254 
L 128 1088 
L 1779 1088 
L 1779 457 
C 1779 224 1766 160 1318 160 
L 1197 160 
L 1197 0 
C 1402 0 1747 0 1965 0 
C 2182 0 2528 0 2733 0 
L 2733 160 
L 2611 160 
C 2163 160 2150 224 2150 457 
L 2150 1088 
L 2803 1088 
L 2803 1254 
L 2150 1254 
L 2150 4122 
z
M 1798 3703 
L 1798 1254 
L 256 1254 
L 1798 3703 
z
" transform="scale(0.015625)"/>
       </defs>
       <use xlink:href="#CMR17-31" transform="scale(0.996264)"/>
       <use xlink:href="#CMR17-30" transform="translate(45.690477 0)scale(0.996264)"/>
       <use xlink:href="#CMR17-34" transform="translate(91.380954 36.153639)scale(0.697382)"/>
      </g>
     </g>
    </g>
    <g id="ytick_5">
     <g id="line2d_26">
      <defs>
       <path id="m3e711381be" d="M 0 0 
L -2 0 
" style="stroke: #000000; stroke-width: 0.6"/>
      </defs>
      <g>
       <use xlink:href="#m3e711381be" x="54" y="250.214466" style="stroke: #000000; stroke-width: 0.6"/>
      </g>
     </g>
    </g>
    <g id="ytick_6">
     <g id="line2d_27">
      <g>
       <use xlink:href="#m3e711381be" x="54" y="245.16967" style="stroke: #000000; stroke-width: 0.6"/>
      </g>
     </g>
    </g>
    <g id="ytick_7">
     <g id="line2d_28">
      <g>
       <use xlink:href="#m3e711381be" x="54" y="240.904355" style="stroke: #000000; stroke-width: 0.6"/>
      </g>
     </g>
    </g>
    <g id="ytick_8">
     <g id="line2d_29">
      <g>
       <use xlink:href="#m3e711381be" x="54" y="237.209571" style="stroke: #000000; stroke-width: 0.6"/>
      </g>
     </g>
    </g>
    <g id="ytick_9">
     <g id="line2d_30">
      <g>
       <use xlink:href="#m3e711381be" x="54" y="233.950541" style="stroke: #000000; stroke-width: 0.6"/>
      </g>
     </g>
    </g>
    <g id="ytick_10">
     <g id="line2d_31">
      <g>
       <use xlink:href="#m3e711381be" x="54" y="211.856013" style="stroke: #000000; stroke-width: 0.6"/>
      </g>
     </g>
    </g>
    <g id="ytick_11">
     <g id="line2d_32">
      <g>
       <use xlink:href="#m3e711381be" x="54" y="200.636885" style="stroke: #000000; stroke-width: 0.6"/>
      </g>
     </g>
    </g>
    <g id="ytick_12">
     <g id="line2d_33">
      <g>
       <use xlink:href="#m3e711381be" x="54" y="192.676787" style="stroke: #000000; stroke-width: 0.6"/>
      </g>
     </g>
    </g>
    <g id="ytick_13">
     <g id="line2d_34">
      <g>
       <use xlink:href="#m3e711381be" x="54" y="186.502455" style="stroke: #000000; stroke-width: 0.6"/>
      </g>
     </g>
    </g>
    <g id="ytick_14">
     <g id="line2d_35">
      <g>
       <use xlink:href="#m3e711381be" x="54" y="181.457658" style="stroke: #000000; stroke-width: 0.6"/>
      </g>
     </g>
    </g>
    <g id="ytick_15">
     <g id="line2d_36">
      <g>
       <use xlink:href="#m3e711381be" x="54" y="177.192344" style="stroke: #000000; stroke-width: 0.6"/>
      </g>
     </g>
    </g>
    <g id="ytick_16">
     <g id="line2d_37">
      <g>
       <use xlink:href="#m3e711381be" x="54" y="173.49756" style="stroke: #000000; stroke-width: 0.6"/>
      </g>
     </g>
    </g>
    <g id="ytick_17">
     <g id="line2d_38">
      <g>
       <use xlink:href="#m3e711381be" x="54" y="170.23853" style="stroke: #000000; stroke-width: 0.6"/>
      </g>
     </g>
    </g>
    <g id="ytick_18">
     <g id="line2d_39">
      <g>
       <use xlink:href="#m3e711381be" x="54" y="148.144002" style="stroke: #000000; stroke-width: 0.6"/>
      </g>
     </g>
    </g>
    <g id="ytick_19">
     <g id="line2d_40">
      <g>
       <use xlink:href="#m3e711381be" x="54" y="136.924874" style="stroke: #000000; stroke-width: 0.6"/>
      </g>
     </g>
    </g>
    <g id="ytick_20">
     <g id="line2d_41">
      <g>
       <use xlink:href="#m3e711381be" x="54" y="128.964776" style="stroke: #000000; stroke-width: 0.6"/>
      </g>
     </g>
    </g>
    <g id="ytick_21">
     <g id="line2d_42">
      <g>
       <use xlink:href="#m3e711381be" x="54" y="122.790444" style="stroke: #000000; stroke-width: 0.6"/>
      </g>
     </g>
    </g>
    <g id="ytick_22">
     <g id="line2d_43">
      <g>
       <use xlink:href="#m3e711381be" x="54" y="117.745647" style="stroke: #000000; stroke-width: 0.6"/>
      </g>
     </g>
    </g>
    <g id="ytick_23">
     <g id="line2d_44">
      <g>
       <use xlink:href="#m3e711381be" x="54" y="113.480333" style="stroke: #000000; stroke-width: 0.6"/>
      </g>
     </g>
    </g>
    <g id="ytick_24">
     <g id="line2d_45">
      <g>
       <use xlink:href="#m3e711381be" x="54" y="109.785549" style="stroke: #000000; stroke-width: 0.6"/>
      </g>
     </g>
    </g>
    <g id="ytick_25">
     <g id="line2d_46">
      <g>
       <use xlink:href="#m3e711381be" x="54" y="106.526519" style="stroke: #000000; stroke-width: 0.6"/>
      </g>
     </g>
    </g>
    <g id="ytick_26">
     <g id="line2d_47">
      <g>
       <use xlink:href="#m3e711381be" x="54" y="84.431991" style="stroke: #000000; stroke-width: 0.6"/>
      </g>
     </g>
    </g>
    <g id="ytick_27">
     <g id="line2d_48">
      <g>
       <use xlink:href="#m3e711381be" x="54" y="73.212863" style="stroke: #000000; stroke-width: 0.6"/>
      </g>
     </g>
    </g>
    <g id="ytick_28">
     <g id="line2d_49">
      <g>
       <use xlink:href="#m3e711381be" x="54" y="65.252765" style="stroke: #000000; stroke-width: 0.6"/>
      </g>
     </g>
    </g>
    <g id="ytick_29">
     <g id="line2d_50">
      <g>
       <use xlink:href="#m3e711381be" x="54" y="59.078433" style="stroke: #000000; stroke-width: 0.6"/>
      </g>
     </g>
    </g>
    <g id="ytick_30">
     <g id="line2d_51">
      <g>
       <use xlink:href="#m3e711381be" x="54" y="54.033636" style="stroke: #000000; stroke-width: 0.6"/>
      </g>
     </g>
    </g>
    <g id="ytick_31">
     <g id="line2d_52">
      <g>
       <use xlink:href="#m3e711381be" x="54" y="49.768322" style="stroke: #000000; stroke-width: 0.6"/>
      </g>
     </g>
    </g>
    <g id="ytick_32">
     <g id="line2d_53">
      <g>
       <use xlink:href="#m3e711381be" x="54" y="46.073538" style="stroke: #000000; stroke-width: 0.6"/>
      </g>
     </g>
    </g>
    <g id="ytick_33">
     <g id="line2d_54">
      <g>
       <use xlink:href="#m3e711381be" x="54" y="42.814508" style="stroke: #000000; stroke-width: 0.6"/>
      </g>
     </g>
    </g>
    <g id="text_8">
     <!-- \(| Z |\) [$\Omega$] -->
     <g transform="translate(26.575432 157.829626)rotate(-90)scale(0.1 -0.1)">
      <defs>
       <path id="CMSY10-6a" d="M 1018 4570 
C 1018 4685 1018 4800 890 4800 
C 762 4800 762 4685 762 4570 
L 762 -1370 
C 762 -1485 762 -1600 890 -1600 
C 1018 -1600 1018 -1485 1018 -1370 
L 1018 4570 
z
" transform="scale(0.015625)"/>
       <path id="CMMI12-5a" d="M 4480 4154 
C 4518 4199 4550 4237 4550 4301 
C 4550 4346 4544 4352 4397 4352 
L 1754 4352 
C 1606 4352 1600 4346 1562 4231 
L 1210 3084 
C 1190 3020 1190 3007 1190 2995 
C 1190 2969 1210 2931 1254 2931 
C 1306 2931 1318 2956 1344 3039 
C 1581 3727 1894 4167 2906 4167 
L 3955 4167 
L 448 216 
C 390 147 365 121 365 51 
C 365 0 397 0 518 0 
L 3251 0 
C 3398 0 3405 6 3443 121 
L 3891 1529 
C 3898 1548 3910 1593 3910 1618 
C 3910 1650 3885 1682 3846 1682 
C 3795 1682 3789 1676 3738 1516 
C 3469 695 3187 198 2074 198 
L 966 198 
L 4480 4154 
z
" transform="scale(0.015625)"/>
       <path id="CMR17-a" d="M 4038 935 
L 3923 935 
C 3866 641 3846 563 3814 461 
C 3782 365 3763 314 3392 314 
L 2874 314 
C 2944 686 3098 961 3366 1391 
C 3699 1935 3974 2377 3974 2910 
C 3974 3775 3155 4480 2138 4480 
C 1094 4480 294 3768 294 2910 
C 294 2377 576 1922 890 1416 
C 1171 961 1325 686 1395 314 
L 877 314 
C 512 314 493 365 461 454 
C 422 557 410 641 346 935 
L 230 935 
L 416 0 
L 1382 0 
C 1517 0 1523 6 1523 102 
C 1523 558 1286 1154 1178 1429 
C 973 1929 781 2416 781 2916 
C 781 3871 1466 4377 2131 4377 
C 2829 4377 3488 3851 3488 2916 
C 3488 2422 3315 1981 3078 1397 
C 2976 1135 2746 551 2746 102 
C 2746 0 2752 0 2886 0 
L 3853 0 
L 4038 935 
z
" transform="scale(0.015625)"/>
      </defs>
      <use xlink:href="#CMSY10-6a" transform="scale(0.996264)"/>
      <use xlink:href="#CMMI12-5a" transform="translate(27.674085 0)scale(0.996264)"/>
      <use xlink:href="#CMSY10-6a" transform="translate(101.597677 0)scale(0.996264)"/>
      <use xlink:href="#CMR17-5b" transform="translate(159.347728 0)scale(0.996264)"/>
      <use xlink:href="#CMR17-a" transform="translate(184.218786 0)scale(0.996264)"/>
      <use xlink:href="#CMR17-5d" transform="translate(250.728667 0)scale(0.996264)"/>
     </g>
    </g>
   </g>
   <g id="line2d_55">
    <path d="M 69.218182 44.443636 
L 76.156901 47.142612 
L 82.539904 48.061106 
L 88.449642 44.882423 
L 93.951476 55.796784 
L 99.098098 63.746399 
L 103.932607 66.483364 
L 108.490703 72.774559 
L 112.802291 84.29674 
L 116.892673 123.850891 
L 120.783443 91.844155 
L 124.493181 64.716362 
L 128.037985 71.216057 
L 131.4319 73.780339 
L 134.687248 77.616564 
L 137.814903 82.916456 
L 140.824504 90.873934 
L 143.724641 91.912963 
L 146.522997 95.639362 
L 149.226475 103.61952 
L 151.841298 120.446572 
L 154.373097 137.52155 
L 156.826982 92.797174 
L 159.207606 91.115961 
L 161.519216 96.705098 
L 163.765701 100.825992 
L 165.950632 102.777218 
L 168.07729 108.130876 
L 170.148704 111.369144 
L 172.167672 115.903734 
L 174.136784 126.145794 
L 176.058442 145.431431 
L 177.934881 110.990848 
L 179.768179 110.053161 
L 181.560276 111.804723 
L 183.312984 115.710253 
L 185.027995 117.415587 
L 186.706899 120.614871 
L 188.351183 127.053914 
L 189.962247 142.630506 
L 191.541407 129.644037 
L 193.089902 121.246109 
L 194.608899 122.790444 
L 196.099503 126.002475 
L 197.562754 128.281537 
L 198.999639 134.028948 
L 200.411092 148.534116 
L 201.797995 136.19668 
L 203.16119 130.676854 
L 204.501474 134.642084 
L 205.819602 139.697073 
L 208.392244 160.471057 
L 209.648096 138.883346 
L 210.884477 148.929809 
L 212.101981 136.008663 
L 213.301176 134.88948 
L 214.482604 136.768521 
L 215.646785 140.619657 
L 216.794214 141.119567 
L 217.925368 141.259449 
L 219.0407 144.288854 
L 220.140648 146.597051 
L 221.22563 149.144138 
L 222.296049 150.829678 
L 223.352289 149.592417 
L 224.394721 151.902103 
L 225.423703 153.2997 
L 226.439576 156.30776 
L 227.442671 163.770617 
L 228.433304 158.896698 
L 229.411782 161.10466 
L 230.3784 162.025948 
L 231.333441 167.267944 
L 232.277179 175.804711 
L 233.20988 172.213506 
L 234.131797 165.322132 
L 235.043178 170.085235 
L 235.944261 175.729623 
L 236.835275 183.966044 
L 237.716444 195.592088 
L 238.587982 175.804711 
L 239.450098 180.550371 
L 240.302994 189.726919 
L 241.146864 200.914975 
L 241.981897 217.1789 
L 242.808277 227.409717 
L 243.626182 233.950541 
L 244.435782 224.204677 
L 245.237246 189.726919 
L 246.030735 166.586052 
L 246.816406 179.585559 
L 247.594411 170.423613 
L 249.128016 123.096498 
L 249.883898 109.407682 
L 251.374501 133.356043 
L 252.109483 115.860621 
L 252.837753 111.91283 
L 253.559432 105.660917 
L 254.274638 101.494536 
L 254.983487 106.98219 
L 255.68609 117.053412 
L 256.382557 123.96036 
L 257.072994 116.651552 
L 257.757504 119.659606 
L 258.436189 117.484025 
L 259.109146 121.089546 
L 259.776472 122.78491 
L 260.43826 125.430422 
L 261.094601 131.513585 
L 261.745584 129.242866 
L 262.391296 130.987671 
L 263.031821 133.58398 
L 263.667242 133.267008 
L 264.297641 132.525489 
L 264.923094 136.017587 
L 265.543681 138.073631 
L 266.159475 137.165724 
L 266.770551 138.962657 
L 267.978831 141.065954 
L 268.576174 141.130302 
L 269.169076 142.28132 
L 269.757603 142.047254 
L 270.921784 145.481648 
L 271.497562 144.421563 
L 272.069213 146.688781 
L 273.200366 147.759312 
L 273.759982 147.447269 
L 274.315699 149.187204 
L 274.867569 149.115465 
L 275.415647 149.738587 
L 275.959983 149.505085 
L 276.500629 151.508725 
L 277.037634 151.213453 
L 277.571047 152.575835 
L 278.627287 153.736511 
L 279.150207 153.923413 
L 279.66972 154.631383 
L 280.185871 154.89499 
L 280.698702 154.526639 
L 281.208256 155.828777 
L 281.714575 155.847047 
L 282.217699 157.137726 
L 283.708303 158.431308 
L 284.199043 159.245783 
L 284.686781 159.328565 
L 285.171554 160.127595 
L 285.653399 160.363267 
L 286.132349 160.840718 
L 286.608439 160.994378 
L 287.081705 161.595193 
L 287.552178 161.866468 
L 288.019892 162.76694 
L 288.484878 162.908113 
L 289.406796 163.746292 
L 289.863788 163.941494 
L 290.318177 164.485511 
L 291.219259 164.610657 
L 292.110274 166.105291 
L 292.552075 166.505343 
L 292.991443 166.211407 
L 293.428402 166.938538 
L 294.295204 167.240343 
L 294.725097 168.309024 
L 295.152685 168.684311 
L 295.577992 168.510469 
L 296.001044 168.539367 
L 296.421862 169.123756 
L 296.840472 169.24213 
L 297.256896 170.054677 
L 297.671156 169.600319 
L 298.083276 170.485583 
L 298.493277 170.923307 
L 299.307008 171.336059 
L 299.710781 171.722605 
L 300.112519 171.722605 
L 300.512244 172.545681 
L 300.909976 172.114627 
L 301.305733 173.051541 
L 301.699536 172.679675 
L 302.091404 172.983556 
L 302.481356 173.88066 
L 302.86941 174.162647 
L 303.255585 173.950888 
L 303.639899 174.519221 
L 304.403014 174.627096 
L 304.781851 175.542791 
L 305.534168 175.654739 
L 305.907681 176.760914 
L 306.279453 176.336108 
L 306.6495 176.259567 
L 307.017838 177.311183 
L 307.384482 177.311183 
L 308.112752 177.550405 
L 308.474407 178.736726 
L 308.83443 177.994423 
L 309.192835 178.445682 
L 309.549637 179.115482 
L 309.904849 179.030865 
L 310.258486 179.073141 
L 310.610561 180.461258 
L 310.961089 179.888911 
L 311.310083 180.729464 
L 311.657556 180.550371 
L 312.347993 181.091166 
L 312.690982 180.595036 
L 313.032503 181.319654 
L 313.372568 181.365579 
L 313.711188 182.395707 
L 314.048376 182.252956 
L 314.384145 182.683437 
L 314.718506 183.465673 
L 315.051471 183.022947 
L 315.383051 183.317309 
L 315.713259 183.865244 
L 316.042104 184.016583 
L 316.3696 183.614837 
L 316.695755 183.915598 
L 317.020582 184.475631 
L 317.344092 183.865244 
L 317.9872 184.890167 
L 318.306819 184.219665 
L 318.625163 184.994779 
L 318.942241 185.364067 
L 319.258063 186.227131 
L 319.572639 185.954521 
L 319.885979 186.613356 
L 320.50899 186.447171 
L 320.81868 187.459592 
L 321.127171 187.061459 
L 321.740597 188.391715 
L 322.045549 188.990651 
L 322.34934 188.332528 
L 322.651978 188.214533 
L 322.953472 188.570039 
L 323.25383 189.233904 
L 323.553061 189.051264 
L 323.851173 189.726919 
L 324.148175 189.233904 
L 324.444075 190.102533 
L 324.738881 189.914089 
L 325.032602 190.355805 
L 325.325244 190.292269 
L 325.616816 190.483316 
L 325.907327 191.260972 
L 326.196782 191.260972 
L 326.485191 191.591558 
L 326.772561 191.326774 
L 327.058898 192.746048 
L 327.344212 192.196754 
L 327.628508 191.993548 
L 328.194077 193.024839 
L 328.475365 193.806322 
L 328.755664 193.590992 
L 329.034981 194.023341 
L 329.313323 194.833965 
L 329.590697 194.61052 
L 329.86711 194.684801 
L 330.142568 195.823636 
L 330.417077 195.362462 
L 330.690645 195.592088 
L 330.963278 196.213907 
L 331.234982 196.37157 
L 331.505763 196.213907 
L 331.775628 197.011362 
L 332.044582 196.689617 
L 332.312633 197.583579 
L 332.846046 198.50739 
L 333.11142 198.16788 
L 333.375915 198.937722 
L 333.639535 198.422121 
L 333.902286 200.179523 
L 334.164175 200.729272 
L 334.425206 200.821968 
L 334.685385 202.744253 
L 335.203212 202.944035 
L 335.717697 204.917576 
L 336.483255 208.474279 
L 337.241533 215.550797 
L 337.743075 223.353232 
L 337.992668 229.950011 
L 338.241483 242.116364 
L 338.736795 221.923479 
L 339.474041 177.152844 
L 339.718283 174.162647 
L 339.96178 173.532169 
L 340.446553 177.35091 
L 340.687839 178.736726 
L 341.407347 184.682123 
L 342.120422 187.980042 
L 342.592287 188.451029 
L 343.061376 189.976761 
L 343.29489 190.419487 
L 343.527723 191.260972 
L 343.759877 191.525124 
L 343.991357 192.538783 
L 344.222168 192.815483 
L 344.452312 193.590992 
L 344.681794 193.662583 
L 344.910618 194.536438 
L 345.138787 194.536438 
L 345.366305 194.168972 
L 345.593175 195.21043 
L 345.819402 195.362462 
L 346.044989 195.134726 
L 346.26994 196.213907 
L 346.494258 195.746238 
L 346.717947 196.057138 
L 347.385272 197.915953 
L 347.606479 197.999674 
L 347.827074 197.832484 
L 348.04706 198.252367 
L 348.266441 199.463113 
L 348.48522 199.286872 
L 348.703401 199.640484 
L 348.920986 199.199171 
L 349.13798 199.111746 
L 349.354384 200.270392 
L 349.570203 200.361561 
L 349.785439 201.195889 
L 350.000096 200.453032 
L 350.427684 201.574933 
L 350.640621 201.101934 
L 350.852991 201.290165 
L 351.064797 202.153416 
L 351.276042 201.76642 
L 351.486729 202.251017 
L 351.696861 202.348963 
L 351.906441 202.944035 
L 352.115471 202.6449 
L 352.323955 202.744253 
L 352.531895 203.757911 
L 352.739294 203.449895 
L 352.946155 203.552187 
L 353.152481 203.145271 
L 353.358275 203.965176 
L 353.563539 203.449895 
L 353.768275 203.552187 
L 353.972488 204.70308 
L 354.176179 204.596453 
L 354.379351 204.279014 
L 354.582007 205.02545 
L 354.784149 205.133747 
L 355.186902 205.792582 
L 355.387518 205.681681 
L 355.587631 205.792582 
L 355.787243 205.461204 
L 355.986357 206.811217 
L 356.184974 206.696166 
L 356.383099 206.811217 
L 356.580732 206.353855 
L 356.777877 207.39376 
L 356.974535 207.39376 
L 357.17071 206.696166 
L 357.561617 208.109397 
L 357.756355 207.630255 
L 357.950618 208.230491 
L 358.144409 207.749265 
L 358.33773 208.844036 
L 358.530584 208.596983 
L 358.722972 208.968395 
L 358.914898 208.474279 
L 359.106362 208.968395 
L 359.297368 208.844036 
L 359.487918 209.854917 
L 359.678013 208.968395 
L 359.867656 209.726518 
L 360.245595 209.34486 
L 360.621752 210.113515 
L 360.809166 209.854917 
L 360.996142 210.506 
L 361.18268 209.854917 
L 361.554452 211.308079 
L 361.73969 211.308079 
L 361.924499 210.904133 
L 362.10888 211.308079 
L 362.292836 211.172774 
L 362.476369 211.308079 
L 362.659481 211.718009 
L 362.842173 211.58069 
L 363.024447 212.698813 
L 363.206305 211.718009 
L 363.749406 212.698813 
L 364.288833 213.715664 
L 364.467834 213.568092 
L 364.646434 213.275287 
L 365.002439 215.080478 
L 365.356862 213.275287 
L 365.533484 214.618019 
L 365.709716 214.925464 
L 365.88556 214.313953 
L 366.061016 214.618019 
L 366.236088 216.352875 
L 366.410775 214.771315 
L 366.585081 215.393134 
L 366.759007 215.236364 
L 367.105725 216.190589 
L 367.622991 217.1789 
L 367.794671 217.011711 
L 367.965981 217.011711 
L 368.136924 217.1789 
L 368.307502 217.857947 
L 368.477715 217.011711 
L 368.647566 217.347106 
L 368.817056 218.203824 
L 368.986187 218.378397 
L 369.154959 217.686617 
L 369.323375 218.030345 
L 369.659144 219.087917 
L 369.8265 218.908824 
L 369.993505 218.908824 
L 370.160161 219.087917 
L 370.32647 219.449619 
L 370.492432 219.268177 
L 370.65805 219.449619 
L 370.823325 219.087917 
L 370.988257 220.001194 
L 371.15285 220.001194 
L 371.317103 219.816111 
L 371.481019 219.816111 
L 371.644598 220.001194 
L 371.807843 220.375116 
L 371.970754 219.449619 
L 372.295581 221.332643 
L 372.4575 220.563989 
L 372.780354 221.923479 
L 372.941293 220.945647 
L 373.101907 221.332643 
L 373.262199 222.123262 
L 373.422169 221.725129 
L 373.581818 222.123262 
L 373.581818 222.123262 
" clip-path="url(#p5ba45d3208)" style="fill: none; stroke: #0000ff; stroke-width: 1.5; stroke-linecap: square"/>
   </g>
   <g id="patch_3">
    <path d="M 54 252 
L 54 34.56 
" style="fill: none; stroke: #000000; stroke-width: 0.8; stroke-linejoin: miter; stroke-linecap: square"/>
   </g>
   <g id="patch_4">
    <path d="M 388.8 252 
L 388.8 34.56 
" style="fill: none; stroke: #000000; stroke-width: 0.8; stroke-linejoin: miter; stroke-linecap: square"/>
   </g>
   <g id="patch_5">
    <path d="M 54 252 
L 388.8 252 
" style="fill: none; stroke: #000000; stroke-width: 0.8; stroke-linejoin: miter; stroke-linecap: square"/>
   </g>
   <g id="patch_6">
    <path d="M 54 34.56 
L 388.8 34.56 
" style="fill: none; stroke: #000000; stroke-width: 0.8; stroke-linejoin: miter; stroke-linecap: square"/>
   </g>
   <g id="text_9">
    <!-- Impedanzgang -->
    <g transform="translate(184.333137 28.56)scale(0.12 -0.12)">
     <defs>
      <path id="CMR17-49" d="M 1261 3905 
C 1261 4192 1338 4192 1798 4192 
L 1798 4352 
C 1594 4352 1267 4352 1050 4352 
C 832 4352 506 4352 301 4352 
L 301 4192 
C 762 4192 838 4192 838 3905 
L 838 447 
C 838 160 762 160 301 160 
L 301 0 
C 506 0 832 0 1050 0 
C 1267 0 1594 0 1798 0 
L 1798 160 
C 1338 160 1261 160 1261 447 
L 1261 3905 
z
" transform="scale(0.015625)"/>
      <path id="CMR17-6d" d="M 4326 1933 
C 4326 2252 4269 2790 3507 2790 
C 3072 2790 2771 2496 2656 2151 
L 2650 2151 
C 2573 2676 2195 2790 1837 2790 
C 1331 2790 1069 2400 973 2144 
L 966 2144 
L 966 2790 
L 211 2720 
L 211 2554 
C 589 2554 646 2515 646 2208 
L 646 428 
C 646 184 621 153 211 153 
L 211 -13 
C 365 0 646 0 813 0 
C 979 0 1267 0 1421 -13 
L 1421 153 
C 1011 153 986 178 986 428 
L 986 1658 
C 986 2247 1344 2688 1792 2688 
C 2266 2688 2317 2266 2317 1958 
L 2317 428 
C 2317 184 2291 153 1882 153 
L 1882 -13 
C 2035 0 2317 0 2483 0 
C 2650 0 2938 0 3091 -13 
L 3091 153 
C 2682 153 2656 178 2656 428 
L 2656 1658 
C 2656 2247 3014 2688 3462 2688 
C 3936 2688 3987 2266 3987 1958 
L 3987 428 
C 3987 184 3962 153 3552 153 
L 3552 -13 
C 3706 0 3987 0 4154 0 
C 4320 0 4608 0 4762 -13 
L 4762 153 
C 4352 153 4326 178 4326 428 
L 4326 1933 
z
" transform="scale(0.015625)"/>
      <path id="CMR17-70" d="M 1408 -1063 
C 998 -1063 973 -1037 973 -789 
L 973 402 
C 1158 134 1427 -38 1766 -38 
C 2406 -38 3053 523 3053 1388 
C 3053 2191 2496 2802 1837 2802 
C 1453 2802 1139 2592 960 2338 
L 960 2802 
L 198 2732 
L 198 2567 
C 576 2567 634 2528 634 2223 
L 634 -789 
C 634 -1031 608 -1063 198 -1063 
L 198 -1228 
C 352 -1216 634 -1216 800 -1216 
C 966 -1216 1254 -1216 1408 -1228 
L 1408 -1063 
z
M 973 2012 
C 973 2102 973 2235 1222 2471 
C 1254 2497 1472 2688 1792 2688 
C 2259 2688 2643 2108 2643 1382 
C 2643 656 2234 64 1728 64 
C 1498 64 1248 172 1056 472 
C 973 612 973 650 973 752 
L 973 2012 
z
" transform="scale(0.015625)"/>
      <path id="CMR17-64" d="M 1869 4326 
L 1869 4160 
C 2246 4160 2304 4122 2304 3820 
L 2304 2345 
C 2278 2377 2016 2790 1498 2790 
C 845 2790 211 2208 211 1364 
C 211 525 806 -64 1434 -64 
C 1978 -64 2259 337 2291 380 
L 2291 -63 
L 3066 -63 
L 3066 128 
C 2688 128 2630 166 2630 473 
L 2630 4396 
L 1869 4326 
z
M 2291 755 
C 2291 563 2176 390 2029 262 
C 1811 70 1594 38 1472 38 
C 1286 38 621 134 621 1356 
C 621 2612 1363 2688 1530 2688 
C 1824 2688 2061 2522 2208 2291 
C 2291 2157 2291 2138 2291 2023 
L 2291 755 
z
" transform="scale(0.015625)"/>
      <path id="CMR17-61" d="M 2304 1653 
C 2304 2072 2304 2294 2035 2543 
C 1798 2752 1523 2816 1306 2816 
C 800 2816 435 2407 435 1971 
C 435 1728 627 1728 666 1728 
C 749 1728 896 1778 896 1954 
C 896 2112 774 2181 666 2181 
C 640 2181 608 2174 589 2168 
C 723 2592 1069 2714 1293 2714 
C 1613 2714 1965 2429 1965 1885 
L 1965 1600 
C 1587 1600 1133 1549 774 1357 
C 371 1133 256 813 256 570 
C 256 77 832 -64 1171 -64 
C 1523 -64 1850 139 1990 511 
C 2003 233 2182 -18 2464 -18 
C 2598 -18 2938 70 2938 567 
L 2938 920 
L 2822 920 
L 2822 562 
C 2822 178 2650 128 2566 128 
C 2304 128 2304 458 2304 738 
L 2304 1653 
z
M 1965 870 
C 1965 317 1568 38 1216 38 
C 896 38 646 275 646 570 
C 646 761 730 1100 1101 1305 
C 1408 1478 1760 1504 1965 1504 
L 1965 870 
z
" transform="scale(0.015625)"/>
      <path id="CMR17-67" d="M 710 1164 
C 832 1068 1043 960 1299 960 
C 1805 960 2240 1357 2240 1888 
C 2240 2054 2189 2310 1997 2509 
C 2176 2692 2438 2752 2586 2752 
C 2611 2752 2650 2752 2682 2734 
C 2656 2728 2598 2703 2598 2605 
C 2598 2527 2656 2471 2739 2471 
C 2835 2471 2886 2533 2886 2614 
C 2886 2731 2790 2854 2586 2854 
C 2330 2854 2106 2738 1926 2580 
C 1734 2753 1504 2816 1299 2816 
C 794 2816 358 2419 358 1888 
C 358 1522 570 1292 634 1228 
C 442 1004 442 743 442 711 
C 442 545 506 302 723 168 
C 390 85 128 -169 128 -486 
C 128 -943 736 -1280 1466 -1280 
C 2170 -1280 2803 -956 2803 -479 
C 2803 384 1856 384 1363 384 
C 1216 384 954 384 922 391 
C 723 423 589 602 589 826 
C 589 883 589 1024 710 1164 
z
M 1299 1068 
C 736 1068 736 1760 736 1889 
C 736 2016 736 2708 1299 2708 
C 1862 2708 1862 2016 1862 1889 
C 1862 1760 1862 1068 1299 1068 
z
M 1466 -1171 
C 826 -1171 384 -835 384 -486 
C 384 -289 493 -105 634 -4 
C 794 104 858 104 1293 104 
C 1818 104 2547 104 2547 -486 
C 2547 -835 2106 -1171 1466 -1171 
z
" transform="scale(0.015625)"/>
     </defs>
     <use xlink:href="#CMR17-49" transform="scale(0.996264)"/>
     <use xlink:href="#CMR17-6d" transform="translate(32.638409 0)scale(0.996264)"/>
     <use xlink:href="#CMR17-70" transform="translate(109.557999 0)scale(0.996264)"/>
     <use xlink:href="#CMR17-65" transform="translate(163.055808 0)scale(0.996264)"/>
     <use xlink:href="#CMR17-64" transform="translate(203.541468 0)scale(0.996264)"/>
     <use xlink:href="#CMR17-61" transform="translate(254.436838 0)scale(0.996264)"/>
     <use xlink:href="#CMR17-6e" transform="translate(300.127315 0)scale(0.996264)"/>
     <use xlink:href="#CMR17-7a" transform="translate(351.022685 0)scale(0.996264)"/>
     <use xlink:href="#CMR17-67" transform="translate(391.508345 0)scale(0.996264)"/>
     <use xlink:href="#CMR17-61" transform="translate(437.198822 0)scale(0.996264)"/>
     <use xlink:href="#CMR17-6e" transform="translate(482.889299 0)scale(0.996264)"/>
     <use xlink:href="#CMR17-67" transform="translate(533.784669 0)scale(0.996264)"/>
    </g>
   </g>
   <g id="legend_1">
    <g id="patch_7">
     <path d="M 336.751687 57.52264 
L 381.8 57.52264 
Q 383.8 57.52264 383.8 55.52264 
L 383.8 41.56 
Q 383.8 39.56 381.8 39.56 
L 336.751687 39.56 
Q 334.751687 39.56 334.751687 41.56 
L 334.751687 55.52264 
Q 334.751687 57.52264 336.751687 57.52264 
z
" style="fill: #ffffff; opacity: 0.8; stroke: #cccccc; stroke-linejoin: miter"/>
    </g>
    <g id="line2d_56">
     <path d="M 338.751687 47.53198 
L 348.751687 47.53198 
L 358.751687 47.53198 
" style="fill: none; stroke: #0000ff; stroke-width: 1.5; stroke-linecap: square"/>
    </g>
    <g id="text_10">
     <!-- \(| Z |\)  -->
     <g transform="translate(366.751687 51.03198)scale(0.1 -0.1)">
      <use xlink:href="#CMSY10-6a" transform="scale(0.996264)"/>
      <use xlink:href="#CMMI12-5a" transform="translate(27.674085 0)scale(0.996264)"/>
      <use xlink:href="#CMSY10-6a" transform="translate(101.597677 0)scale(0.996264)"/>
     </g>
    </g>
   </g>
  </g>
 </g>
 <defs>
  <clipPath id="p5ba45d3208">
   <rect x="54" y="34.56" width="334.8" height="217.44"/>
  </clipPath>
 </defs>
</svg>
